<svg width="65" height="6" viewBox="0 0 65 6" fill="none" xmlns="http://www.w3.org/2000/svg">
<path d="M63.731 3.7488C62.6682 3.7488 62.1365 3.21713 61.4534 2.45831C60.694 1.69894 59.7833 0.712402 58.0374 0.712402C56.2915 0.712402 55.3801 1.69946 54.6213 2.45831C53.9382 3.14142 53.4066 3.7488 52.3438 3.7488C51.281 3.7488 50.7493 3.21713 50.0662 2.45831C49.3068 1.69894 48.396 0.712402 46.6501 0.712402C44.9042 0.712402 43.9928 1.69946 43.2341 2.45831C42.551 3.14142 42.0193 3.7488 40.9565 3.7488C39.8937 3.7488 39.362 3.21713 38.6789 2.45831C37.9196 1.69894 37.0088 0.712402 35.2629 0.712402C33.517 0.712402 32.6056 1.69946 31.8469 2.45831C31.1637 3.14142 30.6321 3.7488 29.5693 3.7488C28.5065 3.7488 27.9748 3.21713 27.2917 2.45831C26.5323 1.69894 25.6216 0.712402 23.8756 0.712402C22.1297 0.712402 21.2184 1.69946 20.4596 2.45831C19.7765 3.14142 19.2448 3.7488 18.182 3.7488C17.1192 3.7488 16.5875 3.21713 15.9044 2.45831C15.1451 1.69894 14.2343 0.712402 12.4884 0.712402C10.7425 0.712402 9.83111 1.69946 9.07237 2.45831C8.38926 3.14142 7.85761 3.7488 6.79478 3.7488C5.732 3.7488 5.2003 3.21713 4.5172 2.45831C3.75783 1.69894 2.84707 0.712402 1.10116 0.712402C0.645755 0.712402 0.341797 1.01583 0.341797 1.47177C0.341797 1.92718 0.645226 2.23113 1.10116 2.23113C2.16395 2.23113 2.69565 2.7628 3.37875 3.52162C4.13811 4.28099 5.04888 5.26753 6.79478 5.26753C8.54069 5.26753 9.45208 4.28047 10.2108 3.52162C10.8939 2.83851 11.4256 2.23113 12.4884 2.23113C13.5512 2.23113 14.0829 2.7628 14.766 3.52162C15.5254 4.28099 16.4361 5.26753 18.182 5.26753C19.9279 5.26753 20.8393 4.28047 21.5981 3.52162C22.2812 2.83851 22.8128 2.23113 23.8756 2.23113C24.9384 2.23113 25.4701 2.7628 26.1532 3.52162C26.9126 4.28099 27.8234 5.26753 29.5693 5.26753C31.3152 5.26753 32.2266 4.28047 32.9853 3.52162C33.6684 2.83851 34.2001 2.23113 35.2629 2.23113C36.3257 2.23113 36.8574 2.7628 37.5405 3.52162C38.2998 4.28099 39.2106 5.26753 40.9565 5.26753C42.7024 5.26753 43.6138 4.28047 44.3725 3.52162C45.0557 2.83851 45.5873 2.23113 46.6501 2.23113C47.7129 2.23113 48.2446 2.7628 48.9277 3.52162C49.6871 4.28099 50.5978 5.26753 52.3438 5.26753C54.0897 5.26753 55.001 4.28047 55.7598 3.52162C56.4429 2.83851 56.9746 2.23113 58.0374 2.23113C59.1002 2.23113 59.6319 2.7628 60.315 3.52162C61.0743 4.28099 61.9851 5.26753 63.731 5.26753C64.1864 5.26753 64.4904 4.9641 64.4904 4.50816C64.4904 4.05222 64.1107 3.7488 63.731 3.7488Z" fill="#ED4C4E"/>
</svg>
